<svg id="Layer_1" data-name="Layer 1" xmlns="http://www.w3.org/2000/svg" viewBox="0 0 153.75 58.69"><defs><style>.cls-1{fill:#fff;}</style></defs><title>bixal_logo_WHITE</title><path class="cls-1" d="M373.52,270.67,383.83,284c1.62-3,2.59-5.91,4.38-8.81l-5.64-7.28a3.5,3.5,0,0,0-.61-.69,2.93,2.93,0,0,0-1.18-.57,8.85,8.85,0,0,0-1.51-.22q-.85-.06-2.27-.06h-6.81l3.31,4.29Z" transform="translate(-310.28 -248.88)"/><path class="cls-1" d="M363.54,253.85c0-1.84-.4-3.1-1.23-3.86s-2.14-1.11-4-1.11H358v0h-.23l-.55,0-.29,0a4.77,4.77,0,0,0-2.76,1,2.73,2.73,0,0,0-.37.45l-.08.11a3.72,3.72,0,0,0-.27.49c0,.08-.08.16-.11.25a4.47,4.47,0,0,0-.18.55c0,.08,0,.17-.08.39l0,.24-.07.56c0,.27,0,.56,0,.87,0,1.84.4,3.1,1.23,3.86s2.14,1.11,4,1.11h.15v0h.37l.55,0,.29,0a4.78,4.78,0,0,0,2.76-1,2.7,2.7,0,0,0,.37-.45l.09-.11a3.61,3.61,0,0,0,.27-.49c0-.08.08-.16.11-.25a4.62,4.62,0,0,0,.18-.55c0-.08,0-.17.08-.39l0-.24.07-.52C363.52,254.48,363.54,254.18,363.54,253.85Z" transform="translate(-310.28 -248.88)"/><path class="cls-1" d="M362.4,267.56a2.27,2.27,0,0,0-1-.77,5,5,0,0,0-1.34-.32c-.3,0-.69-.06-1.11-.07v0h-5.21v40.67h5.36l.35,0v0l.61-.05a5,5,0,0,0,1.34-.32,2.32,2.32,0,0,0,1-.72,1.87,1.87,0,0,0,.37-1.15V268.66A1.92,1.92,0,0,0,362.4,267.56Z" transform="translate(-310.28 -248.88)"/><path class="cls-1" d="M410.19,303.63l-.11-.19L394.8,283.85c-1.15,2.06-2.07,3.55-3.16,5.58h0a5.48,5.48,0,0,0,.68,5.69l8,10.3a3.54,3.54,0,0,0,.63.72,3.14,3.14,0,0,0,1.2.6,8,8,0,0,0,1.57.25q.85.06,2.31.06h6.79Z" transform="translate(-310.28 -248.88)"/><path class="cls-1" d="M444.93,272.88a11,11,0,0,0-2.81-4.66,12.31,12.31,0,0,0-5-2.84,24.5,24.5,0,0,0-7.2-.93,42.59,42.59,0,0,0-13.13,2.71l-.23.08v6h0s-.22,3,3.15,1.36c0,0,4.74-3.36,10.07-3.36,7,0,7,6.73,7,6.73h0c0,.45.08.9.08,1.39v1.78h-4.1a39.39,39.39,0,0,0-8.1.77,19.76,19.76,0,0,0-6.26,2.36,11.61,11.61,0,0,0-4.07,4.1c-.95,1.64-1.43,5-1.43,7.18a12.13,12.13,0,0,0,1,5.07,10.73,10.73,0,0,0,2.9,3.82,12.87,12.87,0,0,0,4.46,2.35,19.24,19.24,0,0,0,5.68.79,16.13,16.13,0,0,0,6.85-1.51,19.07,19.07,0,0,0,3.95-2.47v1.22a1.85,1.85,0,0,0,.67,1.5,3,3,0,0,0,1.43.59,10.86,10.86,0,0,0,1.91.14h4.05v-28A20.85,20.85,0,0,0,444.93,272.88Zm-8.13,25.79c-1.43,1.34-5.19,2.37-8.5,2.17H428a7,7,0,0,1-4.51-1.9,4.71,4.71,0,0,1-1.51-3.72,13,13,0,0,1,.54-3.83,7.38,7.38,0,0,1,1.69-2.2c3.74-3,9.33-2.91,11.56-2.91l1,0Z" transform="translate(-310.28 -248.88)"/><path class="cls-1" d="M410.88,259.36h-9.17a188.35,188.35,0,0,0-32.2,46.3c-.24.7-.33,1.76,1.26,1.79h8.34l.11-.22c1.64-3.27,3.4-6.47,5.24-9.61h0l.24-.46A188,188,0,0,1,410.88,259.36Z" transform="translate(-310.28 -248.88)"/><path class="cls-1" d="M346.18,277.54a19.08,19.08,0,0,0-2.8-6.5,14.42,14.42,0,0,0-5.07-4.52,15.63,15.63,0,0,0-7.5-1.7,16.34,16.34,0,0,0-3.4.35,15.22,15.22,0,0,0-3.23,1.1,20.45,20.45,0,0,0-3.23,1.93c-.5.36-1,.77-1.53,1.2V251.68a2,2,0,0,0-.35-1.14,2.26,2.26,0,0,0-1-.77,5,5,0,0,0-1.34-.32,16.19,16.19,0,0,0-1.78-.09h-4.66V307.1h6.82a1.37,1.37,0,0,0,1.52-1.26v-3c.47.42.91.8,1.34,1.14a19.25,19.25,0,0,0,3.09,2,13.3,13.3,0,0,0,3.24,1.2,16.33,16.33,0,0,0,3.55.37,17.19,17.19,0,0,0,7.34-1.51,14.83,14.83,0,0,0,5.45-4.36,19.63,19.63,0,0,0,3.3-6.75,40.22,40.22,0,0,0,1.1-9.72A33.45,33.45,0,0,0,346.18,277.54Zm-8.9,14.25a12.4,12.4,0,0,1-1.52,4.32,9.07,9.07,0,0,1-7.15,4.2c-5,0-6.95-1.11-9.2-3.6V275.51c2.3-2.42,4.64-3.7,10.06-3.38a7.84,7.84,0,0,1,3.89,1.49,8.1,8.1,0,0,1,2.56,2.86,13.87,13.87,0,0,1,1.42,4.3,31.23,31.23,0,0,1,.43,5.21A33.57,33.57,0,0,1,337.28,291.79Z" transform="translate(-310.28 -248.88)"/><path class="cls-1" d="M459.2,249.5h0c-.59,0-1.16,0-1.56.08a5.38,5.38,0,0,0-1.34.31,2.12,2.12,0,0,0-1,.83,2.07,2.07,0,0,0-.29,1.08v54h0v.2a1.08,1.08,0,0,0,1.22,1.07l.2,0H464V249.5Z" transform="translate(-310.28 -248.88)"/></svg>